# xmcd
#
# Track frame offsets: 
#        172
#        17805
#        40150
#        63395
#        81987
#        97195
#        128247
#        148565
#        173117
#
# Disc length: 2571 seconds
#
# Revision: 1
# Processed by: cddbd v1.5.2PL0 Copyright (c) Steve Scherf et al.
# Submitted via: ExactAudioCopyFreeDBPlugin 1.0
#
DISCID=7a0a0909
DTITLE=Chick Willis - Nasty Chick
DYEAR=1992
DGENRE=Blues
TTITLE0=I Want To Play With Your Poodle
TTITLE1=Her Ding-A-Ling
TTITLE2=Use What You Got
TTITLE3=One Slick Woman
TTITLE4=Jack U Up
TTITLE5=Stoop Down '88
TTITLE6=Big Red Caboose
TTITLE7=That How Much I Love You, Sweetheart
TTITLE8=I'm The Son
EXTD=
EXTT0=
EXTT1=
EXTT2=
EXTT3=
EXTT4=
EXTT5=
EXTT6=
EXTT7=
EXTT8=
PLAYORDER=
